<svg xmlns="http://www.w3.org/2000/svg"  viewBox="0 0 80 80" width="16px" height="16px"><polygon fill="#f78f8f" points="5.5,11.5 5.5,39.5 28.5,68.5 50.5,68.5"/><path fill="#c74343" d="M50.5,69h-22c-0.152,0-0.297-0.069-0.392-0.189l-23-29C5.038,39.723,5,39.613,5,39.5v-28 c0-0.213,0.135-0.402,0.336-0.473s0.425-0.005,0.557,0.163l45,57c0.118,0.15,0.141,0.355,0.058,0.527 C50.866,68.891,50.691,69,50.5,69z M28.741,68h20.727L6,12.94v26.386L28.741,68z"/><polygon fill="#f78f8f" points="44.5,48.5 74.5,11.5 74.5,39.5 67.5,48.5"/><path fill="#c74343" d="M67.5,49h-23c-0.192,0-0.368-0.111-0.451-0.285s-0.059-0.38,0.063-0.529l30-37 c0.133-0.166,0.354-0.227,0.556-0.157C74.866,11.1,75,11.288,75,11.5v28c0,0.111-0.037,0.219-0.105,0.307l-7,9 C67.8,48.929,67.654,49,67.5,49z M45.549,48h21.707L74,39.328V12.91L45.549,48z"/></svg>